<svg xmlns="http://www.w3.org/2000/svg" xmlns:xlink="http://www.w3.org/1999/xlink" xmlns:lucid="lucid" width="822" height="722"><g transform="translate(-239 261)" lucid:page-tab-id="Fgzsvd441wgN"><path d="M240-254a6 6 0 0 1 6-6h808a6 6 0 0 1 6 6v708a6 6 0 0 1-6 6H246a6 6 0 0 1-6-6z" fill="#fff"/><path d="M265.95-260h19.95m9.98 0h19.95m9.97 0h19.95m9.98 0h19.95m9.97 0h19.96m9.98 0h19.95m9.98 0h19.96m9.97 0h19.95m9.98 0h19.95m9.98 0h19.96m9.97 0h19.96m9.98 0h19.95m9.96 0H645m10 0h19.94m9.97 0h19.96m9.98 0h19.95m9.97 0h19.95m9.97 0h19.94m9.98 0h19.95m9.97 0h19.95m9.97 0h19.95m9.98 0h19.95m9.97 0h19.95m9.98 0h19.95m9.97 0h19.95m9.98 0h19.95m9.98 0h9.97a6 6 0 0 1 6 6v9.83m0 9.84v19.66m0 9.84v19.66m0 9.84v19.66m0 9.84v19.66m0 9.84v19.66m0 9.84v19.66m0 9.84v19.66m0 9.84v19.66m0 9.84v19.66m0 9.84v19.66m0 9.84v19.66m0 9.84v19.66m0 9.84v19.66m0 9.84v19.66m0 9.84v19.66m0 9.84v19.66m0 9.84v19.66m0 9.84v19.66m0 9.84v19.66m0 9.84v19.66m0 9.84v19.66m0 9.84v19.66m0 9.84v19.66m0 9.84V454a6 6 0 0 1-6 6h-9.97m-9.98 0h-19.95m-9.98 0h-19.95m-9.97 0h-19.95m-9.98 0h-19.95m-9.97 0H894.4m-9.98 0h-19.95m-9.98 0h-19.96m-9.97 0h-19.95m-9.98 0H774.7m-9.98 0h-19.96m-9.97 0h-19.96m-9.98 0H684.9m-9.96 0H655m-10 0h-19.94m-9.97 0h-19.96m-9.98 0H565.2m-9.97 0H535.3m-9.97 0h-19.94m-9.98 0h-19.95m-9.97 0H445.5m-9.97 0h-19.95m-9.97 0h-19.95m-9.97 0h-19.95m-9.98 0H325.8m-9.97 0h-19.95m-9.98 0h-19.95m-9.97 0H246a6 6 0 0 1-6-6v-9.83m0-9.84v-19.66m0-9.84v-19.66m0-9.84v-19.66m0-9.84v-19.66m0-9.84v-19.66m0-9.84v-19.66m0-9.84v-19.66m0-9.84v-19.66m0-9.84v-19.66m0-9.84v-19.66m0-9.84v-19.66m0-9.84V90.17m0-9.84V60.67m0-9.84V31.17m0-9.84V1.67m0-9.84v-19.66m0-9.84v-19.66m0-9.84v-19.66m0-9.84v-19.66m0-9.84v-19.66m0-9.84v-19.66m0-9.84v-19.66m0-9.84v-19.66m0-9.84V-254a6 6 0 0 1 6-6h9.97" stroke="#000" stroke-width="2" fill="none"/><use xlink:href="#a" transform="matrix(1,0,0,1,252,-248) translate(232.8148148148148 17.77777777777778)"/><use xlink:href="#b" transform="matrix(1,0,0,1,252,-248) translate(320.71604938271605 17.77777777777778)"/><use xlink:href="#c" transform="matrix(1,0,0,1,252,-248) translate(392.69135802469134 17.77777777777778)"/><use xlink:href="#d" transform="matrix(1,0,0,1,252,-248) translate(458.6172839506173 17.77777777777778)"/><path d="M720-194a6 6 0 0 1 6-6h268a6 6 0 0 1 6 6V74a6 6 0 0 1-6 6H726a6 6 0 0 1-6-6z" stroke="#000" stroke-width="2" fill="#fff"/><use xlink:href="#e" transform="matrix(1,0,0,1,732,-188) translate(47.35185185185185 17.77777777777778)"/><use xlink:href="#b" transform="matrix(1,0,0,1,732,-188) translate(125.56172839506172 17.77777777777778)"/><use xlink:href="#f" transform="matrix(1,0,0,1,732,-188) translate(197.53703703703704 17.77777777777778)"/><path d="M860-134a6 6 0 0 1 6-6h108a6 6 0 0 1 6 6V54a6 6 0 0 1-6 6H866a6 6 0 0 1-6-6z" stroke="#000" stroke-width="2" fill="#fff"/><use xlink:href="#g" transform="matrix(1,0,0,1,872,-128) translate(15.345679012345677 17.77777777777778)"/><use xlink:href="#h" transform="matrix(1,0,0,1,872,-128) translate(23.987654320987655 49.77777777777778)"/><path d="M740-134a6 6 0 0 1 6-6h108a6 6 0 0 1 6 6V54a6 6 0 0 1-6 6H746a6 6 0 0 1-6-6z" stroke="#000" stroke-width="2" fill="#fff"/><use xlink:href="#i" transform="matrix(1,0,0,1,752,-128) translate(13.52469135802469 17.77777777777778)"/><use xlink:href="#h" transform="matrix(1,0,0,1,752,-128) translate(23.987654320987655 49.77777777777778)"/><path d="M720 166a6 6 0 0 1 6-6h268a6 6 0 0 1 6 6v268a6 6 0 0 1-6 6H726a6 6 0 0 1-6-6z" stroke="#000" stroke-width="2" fill="#fff"/><use xlink:href="#e" transform="matrix(1,0,0,1,732,172) translate(47.35185185185185 17.77777777777778)"/><use xlink:href="#b" transform="matrix(1,0,0,1,732,172) translate(125.56172839506172 17.77777777777778)"/><use xlink:href="#j" transform="matrix(1,0,0,1,732,172) translate(197.53703703703704 17.77777777777778)"/><path d="M860 226a6 6 0 0 1 6-6h108a6 6 0 0 1 6 6v188a6 6 0 0 1-6 6H866a6 6 0 0 1-6-6z" stroke="#000" stroke-width="2" fill="#fff"/><use xlink:href="#g" transform="matrix(1,0,0,1,872,232) translate(15.345679012345677 17.77777777777778)"/><use xlink:href="#h" transform="matrix(1,0,0,1,872,232) translate(23.987654320987655 49.77777777777778)"/><path d="M740 226a6 6 0 0 1 6-6h108a6 6 0 0 1 6 6v188a6 6 0 0 1-6 6H746a6 6 0 0 1-6-6z" stroke="#000" stroke-width="2" fill="#fff"/><use xlink:href="#i" transform="matrix(1,0,0,1,752,232) translate(13.52469135802469 17.77777777777778)"/><use xlink:href="#h" transform="matrix(1,0,0,1,752,232) translate(23.987654320987655 49.77777777777778)"/><path d="M300-14a6 6 0 0 1 6-6h268a6 6 0 0 1 6 6v268a6 6 0 0 1-6 6H306a6 6 0 0 1-6-6z" stroke="#000" stroke-width="2" fill="#fff"/><use xlink:href="#k" transform="matrix(1,0,0,1,312,-8) translate(42.47530864197529 17.77777777777778)"/><use xlink:href="#l" transform="matrix(1,0,0,1,312,-8) translate(114.4506172839506 17.77777777777778)"/><use xlink:href="#m" transform="matrix(1,0,0,1,312,-8) translate(138.46296296296296 17.77777777777778)"/><path d="M440 46a6 6 0 0 1 6-6h108a6 6 0 0 1 6 6v188a6 6 0 0 1-6 6H446a6 6 0 0 1-6-6z" stroke="#000" stroke-width="2" fill="#fff"/><g><use xlink:href="#g" transform="matrix(1,0,0,1,452,52) translate(15.345679012345677 17.77777777777778)"/><use xlink:href="#h" transform="matrix(1,0,0,1,452,52) translate(23.987654320987655 49.77777777777778)"/></g><path d="M320 46a6 6 0 0 1 6-6h108a6 6 0 0 1 6 6v188a6 6 0 0 1-6 6H326a6 6 0 0 1-6-6z" stroke="#000" stroke-width="2" fill="#fff"/><g><use xlink:href="#i" transform="matrix(1,0,0,1,332,52) translate(13.52469135802469 17.77777777777778)"/><use xlink:href="#h" transform="matrix(1,0,0,1,332,52) translate(23.987654320987655 49.77777777777778)"/></g><g><path d="M884 90a6 6 0 0 1 6 6v58a6 6 0 0 1-6 6h-58a6 6 0 0 1-6-6V96a6 6 0 0 1 6-6z" fill="none"/></g><g><use xlink:href="#n" transform="matrix(6.123233995736766e-17,1,-1,6.123233995736766e-17,890,90) translate(26.666666666666668 39.44444444444444)"/></g><path d="M702.62-60H656a6 6 0 0 0-6 6v168a6 6 0 0 1-6 6h-62.5" stroke="#3a414a" fill="none"/><path d="M717.38-60l-14.26 4.63v-9.27z" stroke="#3a414a" fill="#3a414a"/><path d="M581.5 120.47h-.5v-.94h.5z" stroke="#3a414a" stroke-width=".05" fill="#3a414a"/><path d="M702.62 300H656a6 6 0 0 1-6-6V126a6 6 0 0 0-6-6h-62.5" stroke="#3a414a" fill="none"/><path d="M717.38 300l-14.26 4.63v-9.26z" stroke="#3a414a" fill="#3a414a"/><path d="M581.5 120.47h-.5v-.94h.5z" stroke="#3a414a" stroke-width=".05" fill="#3a414a"/><defs><path d="M103-236c-39-15-35 32-34 71h44v15H69v136l35 6v8H15v-8l25-6v-136H11v-9l29-7c-6-59 23-100 80-84v36c-15 2-12-14-17-22" id="o"/><path d="M84-170c49 0 66 33 63 87H46c-8 60 38 80 95 63v10C128-2 108 4 88 4 34 4 14-29 14-84c-1-54 22-86 70-86zm33 73c12-57-57-82-69-24-1 7-2 15-2 24h71" id="p"/><path d="M13-81c0-71 46-101 114-85l-1-72-28-4v-8h57v238c8 3 24-2 21 12h-47l-2-12C80 23 13-1 13-81zm77-74c-37 1-44 33-45 74 0 38 9 66 45 66 14 0 27-3 36-7v-130c-10-1-24-3-36-3" id="q"/><path d="M57-145c16-10 35-24 60-25v45c-19 1-8-30-40-17l-20 6v124l29 4v8H7v-8l21-4v-141c-8-3-24 2-21-12h48" id="r"/><path d="M32-163c41-10 102-14 102 39v112c8 3 24-2 21 12h-45l-4-17C83 13 3 13 13-46c-2-50 45-50 92-51 4-36-5-70-42-56-6 2-12 4-16 6-4 7 0 23-15 20v-36zM42-47c0 41 41 33 63 22v-59c-34 1-63-1-63 37" id="s"/><path d="M54-38c-1 25 24 26 44 20v12C71 10 25 9 25-35v-115H4c-2-14 14-10 21-15l18-38h11v38h38v15H54v112" id="t"/><g id="a"><use transform="matrix(0.06172839506172839,0,0,0.06172839506172839,0,0)" xlink:href="#o"/><use transform="matrix(0.06172839506172839,0,0,0.06172839506172839,7.345679012345679,0)" xlink:href="#p"/><use transform="matrix(0.06172839506172839,0,0,0.06172839506172839,17.160493827160494,0)" xlink:href="#q"/><use transform="matrix(0.06172839506172839,0,0,0.06172839506172839,28.271604938271604,0)" xlink:href="#p"/><use transform="matrix(0.06172839506172839,0,0,0.06172839506172839,38.08641975308642,0)" xlink:href="#r"/><use transform="matrix(0.06172839506172839,0,0,0.06172839506172839,45.432098765432094,0)" xlink:href="#s"/><use transform="matrix(0.06172839506172839,0,0,0.06172839506172839,55.24691358024691,0)" xlink:href="#t"/><use transform="matrix(0.06172839506172839,0,0,0.06172839506172839,61.41975308641975,0)" xlink:href="#p"/><use transform="matrix(0.06172839506172839,0,0,0.06172839506172839,71.23456790123457,0)" xlink:href="#q"/></g><path d="M141-152c28 39 5 97-54 97-9 0-20-2-27-3L49-35c29 22 130-14 124 52-4 45-38 57-88 61C21 83-8 26 45-2 33-6 22-15 21-31l28-31c-19-9-28-26-28-51-2-51 53-65 100-52l38-20 7 8zM85 64c35 0 61-11 61-42 0-35-57-17-89-21-9 8-16 19-17 34 0 25 19 29 45 29zM52-113c1 26 7 46 35 44 28-1 34-16 35-44 0-26-6-43-34-43s-36 17-36 43" id="u"/><path d="M47-200c-23 0-25-39 0-38 13 0 18 7 20 19-1 11-8 19-20 19zM65-12l28 4v8H8v-8l28-4v-141l-24-4v-8h53v153" id="v"/><path d="M41-130c7 48 86 23 86 84 0 56-69 57-112 41v-40c20 0 9 29 31 31 35 19 77-26 41-50-27-18-72-13-72-59 0-50 58-52 100-41v36c-19 1-8-25-28-25-21-7-50-1-46 23" id="w"/><g id="b"><use transform="matrix(0.06172839506172839,0,0,0.06172839506172839,0,0)" xlink:href="#r"/><use transform="matrix(0.06172839506172839,0,0,0.06172839506172839,7.345679012345679,0)" xlink:href="#p"/><use transform="matrix(0.06172839506172839,0,0,0.06172839506172839,17.160493827160494,0)" xlink:href="#u"/><use transform="matrix(0.06172839506172839,0,0,0.06172839506172839,28.271604938271604,0)" xlink:href="#v"/><use transform="matrix(0.06172839506172839,0,0,0.06172839506172839,34.44444444444444,0)" xlink:href="#w"/><use transform="matrix(0.06172839506172839,0,0,0.06172839506172839,43.08641975308642,0)" xlink:href="#t"/><use transform="matrix(0.06172839506172839,0,0,0.06172839506172839,49.25925925925926,0)" xlink:href="#p"/><use transform="matrix(0.06172839506172839,0,0,0.06172839506172839,59.074074074074076,0)" xlink:href="#r"/></g><path d="M108-235c-52 28-62 95-58 178 3 56 21 97 58 119v15C7 49-17-153 67-223c12-10 25-19 41-27v15" id="x"/><path d="M125-118c4-37-41-34-68-26v132l23 4v8H8C5-13 21-9 28-12v-141c-7-3-23 1-20-12h47l2 13c31-23 98-29 98 31v109c7 3 23-1 20 12h-72v-8l22-4v-106" id="y"/><path d="M65-12l28 4v8H7v-8l28-4v-226l-28-4v-8h58v238" id="z"/><g id="c"><use transform="matrix(0.06172839506172839,0,0,0.06172839506172839,0,0)" xlink:href="#x"/><use transform="matrix(0.06172839506172839,0,0,0.06172839506172839,7.345679012345679,0)" xlink:href="#w"/><use transform="matrix(0.06172839506172839,0,0,0.06172839506172839,15.987654320987653,0)" xlink:href="#v"/><use transform="matrix(0.06172839506172839,0,0,0.06172839506172839,22.160493827160494,0)" xlink:href="#y"/><use transform="matrix(0.06172839506172839,0,0,0.06172839506172839,33.27160493827161,0)" xlink:href="#u"/><use transform="matrix(0.06172839506172839,0,0,0.06172839506172839,44.38271604938272,0)" xlink:href="#z"/><use transform="matrix(0.06172839506172839,0,0,0.06172839506172839,50.555555555555564,0)" xlink:href="#p"/></g><path d="M126-118c4-37-42-32-68-25v131l24 4v8H8C5-13 21-9 28-12v-141c-7-3-23 1-20-12h48l1 13c22-15 77-30 92 2 32-22 104-36 104 29v109c8 3 24-2 21 12h-75v-8l25-4v-106c3-39-45-31-72-24 7 37 1 88 3 130l25 4v8h-78v-8l24-4v-106" id="A"/><path d="M166-85c3 67-44 102-111 85l1 64 29 4v9H6v-9l21-4v-217c-7-3-22 1-19-12h46l1 9c11-8 26-14 45-14 47 2 64 36 66 85zM56-13c53 14 83-14 78-72 7-53-33-79-78-60v132" id="B"/><path d="M45-84c0 64 52 80 104 63 1 25-30 25-55 25-56 0-80-32-80-88 0-76 62-98 131-80v46h-10c-5-15-4-31-23-35-47-10-67 21-67 69" id="C"/><path d="M12-250C113-222 137-19 52 49 40 59 28 69 12 77V62C56 37 70-16 70-87c0-70-13-123-58-148v-15" id="D"/><g id="d"><use transform="matrix(0.06172839506172839,0,0,0.06172839506172839,0,0)" xlink:href="#y"/><use transform="matrix(0.06172839506172839,0,0,0.06172839506172839,11.11111111111111,0)" xlink:href="#s"/><use transform="matrix(0.06172839506172839,0,0,0.06172839506172839,20.925925925925924,0)" xlink:href="#A"/><use transform="matrix(0.06172839506172839,0,0,0.06172839506172839,38.20987654320987,0)" xlink:href="#p"/><use transform="matrix(0.06172839506172839,0,0,0.06172839506172839,48.02469135802469,0)" xlink:href="#w"/><use transform="matrix(0.06172839506172839,0,0,0.06172839506172839,56.666666666666664,0)" xlink:href="#B"/><use transform="matrix(0.06172839506172839,0,0,0.06172839506172839,67.77777777777777,0)" xlink:href="#s"/><use transform="matrix(0.06172839506172839,0,0,0.06172839506172839,77.59259259259258,0)" xlink:href="#C"/><use transform="matrix(0.06172839506172839,0,0,0.06172839506172839,87.40740740740739,0)" xlink:href="#p"/><use transform="matrix(0.06172839506172839,0,0,0.06172839506172839,97.2222222222222,0)" xlink:href="#D"/></g><path d="M53-14c58 12 82-15 82-73 0-52-35-77-82-58v131zM89 4C64 4 42-2 24-9v-229l-24-4v-8h53l-1 94c48-33 114-4 114 69 0 57-23 91-77 91" id="E"/><g id="e"><use transform="matrix(0.06172839506172839,0,0,0.06172839506172839,0,0)" xlink:href="#A"/><use transform="matrix(0.06172839506172839,0,0,0.06172839506172839,17.28395061728395,0)" xlink:href="#p"/><use transform="matrix(0.06172839506172839,0,0,0.06172839506172839,27.098765432098766,0)" xlink:href="#A"/><use transform="matrix(0.06172839506172839,0,0,0.06172839506172839,44.382716049382715,0)" xlink:href="#E"/><use transform="matrix(0.06172839506172839,0,0,0.06172839506172839,55.49382716049382,0)" xlink:href="#p"/><use transform="matrix(0.06172839506172839,0,0,0.06172839506172839,65.30864197530863,0)" xlink:href="#r"/></g><path d="M110-14l48 5v9H32v-9l48-5v-192l-48 17v-10l69-39h9v224" id="F"/><use transform="matrix(0.06172839506172839,0,0,0.06172839506172839,0,0)" xlink:href="#F" id="f"/><path d="M90-170c52 0 76 32 76 87 0 54-24 87-77 87-51 0-75-34-75-87 0-54 24-87 76-87zM89-10c39 0 46-35 46-73 0-39-7-73-46-73-39 1-44 34-44 73s6 72 44 73" id="G"/><g id="g"><use transform="matrix(0.06172839506172839,0,0,0.06172839506172839,0,0)" xlink:href="#C"/><use transform="matrix(0.06172839506172839,0,0,0.06172839506172839,9.814814814814815,0)" xlink:href="#G"/><use transform="matrix(0.06172839506172839,0,0,0.06172839506172839,20.925925925925924,0)" xlink:href="#y"/><use transform="matrix(0.06172839506172839,0,0,0.06172839506172839,32.03703703703704,0)" xlink:href="#t"/><use transform="matrix(0.06172839506172839,0,0,0.06172839506172839,38.20987654320988,0)" xlink:href="#p"/><use transform="matrix(0.06172839506172839,0,0,0.06172839506172839,48.0246913580247,0)" xlink:href="#y"/><use transform="matrix(0.06172839506172839,0,0,0.06172839506172839,59.13580246913581,0)" xlink:href="#t"/></g><g id="h"><use transform="matrix(0.06172839506172839,0,0,0.06172839506172839,0,0)" xlink:href="#B"/><use transform="matrix(0.06172839506172839,0,0,0.06172839506172839,11.11111111111111,0)" xlink:href="#z"/><use transform="matrix(0.06172839506172839,0,0,0.06172839506172839,17.28395061728395,0)" xlink:href="#s"/><use transform="matrix(0.06172839506172839,0,0,0.06172839506172839,27.098765432098766,0)" xlink:href="#y"/><use transform="matrix(0.06172839506172839,0,0,0.06172839506172839,38.20987654320987,0)" xlink:href="#p"/></g><g id="i"><use transform="matrix(0.06172839506172839,0,0,0.06172839506172839,0,0)" xlink:href="#C"/><use transform="matrix(0.06172839506172839,0,0,0.06172839506172839,9.814814814814815,0)" xlink:href="#G"/><use transform="matrix(0.06172839506172839,0,0,0.06172839506172839,20.925925925925924,0)" xlink:href="#y"/><use transform="matrix(0.06172839506172839,0,0,0.06172839506172839,32.03703703703704,0)" xlink:href="#C"/><use transform="matrix(0.06172839506172839,0,0,0.06172839506172839,41.851851851851855,0)" xlink:href="#p"/><use transform="matrix(0.06172839506172839,0,0,0.06172839506172839,51.66666666666667,0)" xlink:href="#B"/><use transform="matrix(0.06172839506172839,0,0,0.06172839506172839,62.777777777777786,0)" xlink:href="#t"/></g><use transform="matrix(0.06172839506172839,0,0,0.06172839506172839,0,0)" xlink:href="#y" id="j"/><g id="k"><use transform="matrix(0.06172839506172839,0,0,0.06172839506172839,0,0)" xlink:href="#r"/><use transform="matrix(0.06172839506172839,0,0,0.06172839506172839,7.345679012345679,0)" xlink:href="#p"/><use transform="matrix(0.06172839506172839,0,0,0.06172839506172839,17.160493827160494,0)" xlink:href="#u"/><use transform="matrix(0.06172839506172839,0,0,0.06172839506172839,28.271604938271604,0)" xlink:href="#v"/><use transform="matrix(0.06172839506172839,0,0,0.06172839506172839,34.44444444444444,0)" xlink:href="#w"/><use transform="matrix(0.06172839506172839,0,0,0.06172839506172839,43.08641975308642,0)" xlink:href="#t"/><use transform="matrix(0.06172839506172839,0,0,0.06172839506172839,49.25925925925926,0)" xlink:href="#p"/><use transform="matrix(0.06172839506172839,0,0,0.06172839506172839,59.074074074074076,0)" xlink:href="#r"/></g><g id="l"><use transform="matrix(0.06172839506172839,0,0,0.06172839506172839,0,0)" xlink:href="#G"/><use transform="matrix(0.06172839506172839,0,0,0.06172839506172839,11.11111111111111,0)" xlink:href="#o"/></g><g id="m"><use transform="matrix(0.06172839506172839,0,0,0.06172839506172839,0,0)" xlink:href="#r"/><use transform="matrix(0.06172839506172839,0,0,0.06172839506172839,7.345679012345679,0)" xlink:href="#p"/><use transform="matrix(0.06172839506172839,0,0,0.06172839506172839,17.160493827160494,0)" xlink:href="#u"/><use transform="matrix(0.06172839506172839,0,0,0.06172839506172839,28.271604938271604,0)" xlink:href="#v"/><use transform="matrix(0.06172839506172839,0,0,0.06172839506172839,34.44444444444444,0)" xlink:href="#w"/><use transform="matrix(0.06172839506172839,0,0,0.06172839506172839,43.08641975308642,0)" xlink:href="#t"/><use transform="matrix(0.06172839506172839,0,0,0.06172839506172839,49.25925925925926,0)" xlink:href="#p"/><use transform="matrix(0.06172839506172839,0,0,0.06172839506172839,59.074074074074076,0)" xlink:href="#r"/><use transform="matrix(0.06172839506172839,0,0,0.06172839506172839,66.41975308641976,0)" xlink:href="#w"/></g><path d="M45-37c13 0 21 8 21 21C67-2 57 4 45 5 33 4 23-2 24-16c0-13 8-21 21-21" id="H"/><g id="n"><use transform="matrix(0.06172839506172839,0,0,0.06172839506172839,0,0)" xlink:href="#H"/><use transform="matrix(0.06172839506172839,0,0,0.06172839506172839,5.555555555555555,0)" xlink:href="#H"/><use transform="matrix(0.06172839506172839,0,0,0.06172839506172839,11.11111111111111,0)" xlink:href="#H"/></g></defs></g></svg>